<svg xmlns="http://www.w3.org/2000/svg" width="1027.588" height="931" version="1"><defs><clipPath clipPathUnits="userSpaceOnUse" id="a"><path opacity="1" fill="none" fill-opacity="1" stroke="red" stroke-width="1.992" stroke-linecap="round" stroke-linejoin="round" stroke-miterlimit="1" stroke-dashoffset="0" stroke-opacity="1" d="M-901.335 137.917H121.834v927.169H-901.335z"/></clipPath><clipPath clipPathUnits="userSpaceOnUse" id="b"><path display="inline" opacity="1" fill="none" fill-opacity="1" stroke="red" stroke-width="1.992" stroke-linecap="round" stroke-linejoin="round" stroke-miterlimit="1" stroke-dashoffset="0" stroke-opacity="1" d="M-900.581 137.915H122.588v927.169H-900.581z"/></clipPath><clipPath clipPathUnits="userSpaceOnUse" id="c"><path display="inline" opacity="1" fill="none" fill-opacity="1" stroke="red" stroke-width="1.992" stroke-linecap="round" stroke-linejoin="round" stroke-miterlimit="1" stroke-dashoffset="0" stroke-opacity="1" d="M-901.319 138.209H121.85v927.169H-901.319z"/></clipPath></defs><g display="inline" stroke-linecap="round" stroke-linejoin="round" stroke-miterlimit="1"><path d="M141.586 413.275l9.365 13.398-12.041-13.398h2.676M228.496 557.772v14.718l-12.042 13.38-2.676-14.7 10.704-13.398h4.014" display="inline" opacity="1" fill="#ffffd0" fill-opacity="1" stroke="none" stroke-width="1.226"/><path d="M-1009.572-363.488l8.01 10.722 13.379 10.685 14.698 9.366 13.38 8.009 13.36 6.708 9.366 13.398 10.704-13.398 14.698-2.694 14.718 8.046h13.36l13.38 8.046 6.67-1.357 13.38-4.032h13.36l5.353 13.398-1.338 14.717 2.676 13.398 8.027 14.717-1.338 13.398v14.718l2.676 14.717 6.69 13.36 5.352 13.38 1.319 8.046-9.366 14.718 4.014 14.736 8.028-14.736 13.38 10.703 2.675 13.398 13.36 6.671 13.38-5.352 13.36 12.023 2.677 13.38-2.676 13.416-10.685 13.342-13.38 12.06-14.717 4.033v2.657l13.38 8.046-1.338 14.718-4.014 13.379-10.685 5.352-13.38 12.022-1.337 13.398 6.69-13.398 13.379-9.365 14.699-8.028 2.675-13.38 1.338-14.716 10.704-13.398 13.36-10.704 2.677 13.417 2.675 1.32 6.69-9.385 14.699 8.065 8.027-1.357h14.7l13.378-2.676 14.7 4.033 13.379 1.32 14.698 2.675 13.38 5.37 13.36-2.713-1.319 14.718-1.338 13.398 5.333 13.36 14.718 8.046 13.379 8.047-1.357 14.736 2.676 13.342 13.38 14.717 14.717-1.32 13.36 6.69 5.352 13.38-1.337 13.398 5.351 14.698-12.041 14.736-13.36 10.685-9.366 14.717-8.028 26.76-4.014 14.716 1.338 14.718 14.699 8.027 8.046 13.398-6.69 13.398-8.027 13.342-4.014 14.736-4.014 13.38-2.676 10.685v14.736l6.69 13.397 6.69 14.718 2.675 13.38-2.675 13.36 2.675 14.717-5.351 13.398-1.338 13.398 6.69 14.717-2.676 13.38-4.014 14.717-1.338 13.36 1.338 14.737-2.676 13.398-4.014 13.38 1.338 14.716-2.676 14.718 2.676 13.36-2.676 13.398-4.014 14.718-2.676 13.398-12.022 13.379-12.042-13.38-13.36-10.684-9.366-13.398-14.699-9.384-13.38-13.38-9.365-13.38-14.699-2.694 1.338 13.398-10.703 14.718 4.014 13.36-1.338 13.398-13.361 2.695-14.717-6.708-13.38-8.01-13.36-5.351-13.38-9.366-13.36-8.046-13.38-13.398-14.699-1.32-13.36 9.366 8.009 14.718 9.365 13.398 8.01 13.36 4.013 13.398-6.671 14.718h-14.717l-4.014-5.352v-1.32l-5.352-13.397-14.699-12.005-13.36-13.398-13.38-6.69-2.676-2.694 2.676-9.365-13.38-10.685-14.698-10.704-13.38-13.398-13.36-13.38-2.676-14.735-13.38-9.347-2.675-13.38-13.361-10.703-14.699-5.37-10.703-13.36-13.38-6.709-10.684-2.657-14.718-8.047-13.36-9.384-13.38-4.014-9.347-14.717-13.38-10.685-14.717-10.703-13.36-9.366-13.38-5.351-14.698-12.023-12.042-13.38-14.717-10.703-13.36-12.042-13.362-9.365-14.717-10.704-13.36-9.365-13.38-9.366-14.699-14.736 3.996-13.36-8.01-13.398-4.013-13.38-2.676-13.38-13.361-10.703-14.717-9.384-13.38-8.009-13.36-8.046-14.7-10.703-13.378-10.685-13.38-9.366-14.699-10.703-9.365-13.398-8.01-13.398-10.703-13.343-6.69-14.735-13.379-26.76-8.009-13.397-13.38-8.01-14.698-8.045-13.38-12.023-10.684-13.398-2.676-4.014-8.028-13.38-10.703-13.379-5.333-13.398-8.028-13.398 6.69-14.717 2.657-13.36-2.657-13.38-6.69-14.717-12.041-13.398-8.028-14.718-10.685-13.379-4.014-13.38-8.027-14.717-5.333-13.397v-14.718l-14.718-6.652-9.365-13.417-13.361-13.38 9.347-14.716-10.685-13.38-2.676-14.717-5.352-13.38-12.022-14.717-13.38-12.041-10.703-14.718-8.01-13.36-12.04-14.718-8.028-5.351-13.361-12.06-13.38-10.704-1.337-13.38-10.685-14.716 3.995-13.38-10.685-13.36-13.38-13.417-13.36-8.046-14.717-6.671-14.7-1.301-10.703-13.417-13.36 2.695-14.718-5.333h-6.69v-14.718l-2.675-13.398-2.658-13.398-4.013-13.38-2.676-14.735-8.028-13.342-1.338-13.417-12.023-14.717v-13.38l-5.351-14.717-2.676-14.717-6.69-13.36-5.352-14.718-2.676-13.398-8.009-14.717-5.351-13.398-10.704-13.398 13.38-5.333 6.69-13.38-8.028-14.698-13.38 1.32-12.023-13.399-10.703-13.398-13.38-13.342-13.36-9.366-14.699-1.356-13.38-6.69-13.379-13.38-14.698-10.703-13.38-8.009-6.67-2.713-13.38-6.67-13.361 5.351-14.717-6.69-13.38-12.041-10.685-14.717-1.337-13.38v-28.078l-5.352-29.453-5.352-13.38-13.36-2.694-14.7-5.352-13.379-12.023-9.365-13.397-4.014-13.38-4.014-14.736-14.699-5.333-9.365-13.36-9.366-13.399-8.009-13.397-6.69-13.398-14.717-9.347-5.333-13.361-14.717-9.384-13.361-6.69h-13.38l-14.698 2.676-14.717-2.676-13.361-12.041-10.704-13.38-9.365-13.38-9.347-14.698-13.38-13.416-13.36-2.676-12.042-13.361-13.36-8.065-13.361-14.717-10.704-13.38-14.717-13.36-12.042-13.38-14.698-10.722-13.361-12.041-9.366-13.38-13.36-13.379-4.014-14.717-5.352-13.398-5.352-13.38-10.703-14.717-1.32-13.36-8.046-14.718-1.32-13.416 2.677-13.38-4.014-13.38v-13.378h13.36l13.38-8.047 14.699-6.652 13.38 9.365 14.698-5.37 13.38 6.671 14.698 4.033 13.38 6.67 12.022 13.417 12.042 13.38 13.36 12.004 14.718 8.065 14.698 3.995 13.38-1.338 13.36 8.065 14.718 1.3h13.36l14.718 1.338 13.36-1.338 14.718-5.351 13.38-5.333 13.36 2.675 14.699-1.337h14.717l13.36 5.351 10.704 13.38 13.361 1.338 13.38-5.352 13.36-4.014 14.718-6.69 4.013-1.3 13.361 9.365 9.366 14.717 13.38 13.361 13.36 9.366 14.717 13.379 13.361 8.046 6.69 14.718 2.675 13.379 4.014 14.717v13.38l14.7 4.05 13.378 5.315 13.361 9.403 12.042 14.717-4.014 13.38v9.347l-1.338 13.379-13.38 6.708 13.38-2.713 6.69 13.398 14.698 1.32 13.38 6.689 13.36 8.028 14.718 13.398 13.36 4.032 4.014 13.36 12.042 14.718 13.36 8.046 13.38 5.333 13.38 4.051 13.36 5.334 14.699 9.365 13.38 6.671 13.378 12.042 14.7 13.379 13.378 5.333 12.023 13.398 13.38 13.398 14.698 5.333 13.38 2.695 10.685 13.38 10.703 14.716 1.338 5.352 13.36 6.69 10.704 13.38 1.338 13.378-4.014 13.417 2.676 13.36 2.676 8.028v-17.393l13.38 5.37v13.343l6.67 14.717 4.014 2.713-4.013-14.736 4.013-13.38 13.38-4.032 8.009 13.398 10.703 14.718 5.352 13.398 4.014 13.398 5.352 14.717 10.685 13.36 14.717 12.042 13.36 10.704 14.718 1.319 13.36 9.365 13.38 9.366 9.347 13.417 2.676 13.342 8.028 9.384v-13.38l-6.69-14.717-4.014-13.38-13.36-13.397-2.677-14.717 6.69-13.38 13.36-3.995 14.718 2.657 13.361-1.338 2.676 14.736 13.38 8.046 14.698 12.005 13.38 9.384 5.351 13.38v14.716l5.352 13.38 5.333 14.717 14.717 8.028 13.361 6.69h13.38l14.698-2.658 13.38 3.995 13.379 12.023 14.698 12.042 13.361 12.041 14.718 8.046 13.379 14.718-1.357 13.36 4.014 5.352 5.352 13.38-1.338 14.717 1.338 2.694 6.69 14.718 14.717 9.365 12.023 13.38 14.717 13.379 13.36 8.046h13.38l14.699-2.694 13.38 2.694h13.36l14.717 3.995 12.023 13.398 12.042 14.717 8.027 14.718-14.717 12.06-13.38 8.009-14.698 6.708-13.36 6.671-14.718 6.653-13.38 4.032-13.36 9.366-14.699-12.005h-8.028l13.361 9.347 14.717 8.028 14.7-12.023h13.36l13.38-5.333 13.379-1.375 14.698-9.347 13.38-9.366 14.698-5.351 13.38-10.704 14.699-9.366 13.379-6.67 14.717 4.032 13.361 10.666 13.38 12.042 5.333 14.717 13.379-2.676 13.36 13.398 2.677 13.36 2.675 14.718 4.014 13.38 1.338 4.05-14.717 2.658-13.36 5.333h-13.38l-6.671 13.398-14.718 10.703-13.36 8.046-13.38 8.047 13.38-4.014 13.36 5.333-8.027 13.398-14.699 2.657 5.333 4.033h13.38l14.717 2.676 13.36 9.346-13.36 9.366-14.718 2.713-13.379-12.06v5.37l8.046 14.718-4.013 14.717-6.69 13.38 13.38 6.596" clip-path="url(#a)" display="inline" opacity="1" fill="#ffffd0" fill-opacity="1" stroke="none" stroke-width="1.226" transform="translate(903.806 -135.69)"/><path d="M-1009.572-363.487l8.009 10.722 13.379 10.685 14.699 9.365 13.38 8.01 13.36 6.707 9.365 13.398 10.704-13.398 14.699-2.694 14.717 8.046h13.36l13.38 8.046 6.671-1.356 13.38-4.033h13.36l5.352 13.398-1.338 14.718 2.676 13.398 8.028 14.717-1.338 13.398v14.717l2.676 14.718 6.69 13.36 5.351 13.38 1.32 8.046-9.366 14.717 4.014 14.736 8.027-14.736 13.38 10.704 2.675 13.398 13.361 6.67 13.38-5.351 13.36 12.023 2.676 13.38-2.676 13.416-10.685 13.342-13.379 12.06-14.717 4.032v2.658l13.38 8.046-1.339 14.717-4.014 13.38-10.685 5.351-13.379 12.023-1.338 13.398 6.69-13.398 13.38-9.366 14.698-8.027 2.676-13.38 1.338-14.717 10.703-13.398 13.361-10.703 2.676 13.416 2.676 1.32 6.69-9.385 14.698 8.065 8.028-1.356h14.698l13.38-2.676 14.699 4.032 13.379 1.32 14.699 2.675 13.379 5.37 13.36-2.712-1.319 14.717-1.337 13.398 5.333 13.36 14.717 8.047 13.38 8.046-1.357 14.736 2.676 13.342 13.379 14.718 14.717-1.32 13.361 6.69 5.352 13.38-1.338 13.397 5.352 14.699-12.042 14.736-13.36 10.685-9.366 14.717-8.028 26.759-4.014 14.717 1.338 14.717 14.7 8.028 8.045 13.398-6.69 13.398-8.027 13.342-4.014 14.736-4.014 13.38-2.675 10.684v14.736l6.69 13.398 6.689 14.717 2.676 13.38-2.676 13.36 2.676 14.718-5.352 13.398-1.338 13.397 6.69 14.718-2.676 13.38-4.014 14.717-1.338 13.36 1.338 14.736-2.676 13.398-4.014 13.38 1.338 14.717-2.676 14.717 2.676 13.36-2.676 13.399-4.013 14.717-2.676 13.398-12.023 13.38-12.041-13.38-13.361-10.685-9.366-13.398-14.698-9.384-13.38-13.38-9.365-13.379-14.7-2.694.22 11.534-12.959 4.745-6.69 7.363 1.303 7.028 3.221 5.912-4.503 5.106 1.012 6.87 5.614.05 5.819 1.923-.471 4.716-5.298 1.068-7.318 1.253-14.717-6.708-13.38-8.009-13.36-5.352-13.38-9.365-13.36-8.047-13.38-13.398-14.698-1.319-13.361 9.366 8.009 14.717 9.366 13.398 8.009 13.36 4.013 13.399-6.67 14.717h-14.718l-4.014-5.352v-1.319l-5.352-13.398-14.698-12.004-13.361-13.398-13.38-6.69-2.675-2.694 2.676-9.366-13.38-10.685-14.698-10.703-13.38-13.398-13.36-13.38-2.676-14.736-13.38-9.346-2.676-13.38-13.36-10.703-14.7-5.37-10.703-13.361-13.38-6.709-10.684-2.657-14.717-8.046-13.361-9.384-13.38-4.014-9.346-14.718-13.38-10.684-14.717-10.704-13.36-9.365-13.38-5.352-14.699-12.023-12.041-13.38-14.718-10.703-13.36-12.041-13.361-9.366-14.718-10.703-13.36-9.366-13.38-9.365-14.698-14.736 3.995-13.361-8.01-13.398-4.013-13.38-2.676-13.379-13.36-10.703-14.718-9.384-13.38-8.01-13.36-8.046-14.699-10.703-13.38-10.685-13.378-9.365-14.7-10.704-9.365-13.398-8.009-13.398-10.703-13.342-6.69-14.736-13.38-26.759-8.008-13.398-13.38-8.009-14.698-8.046-13.38-12.023-10.685-13.398-2.676-4.013-8.027-13.38-10.704-13.38-5.333-13.397-8.027-13.398 6.69-14.717 2.656-13.361-2.657-13.38-6.69-14.717-12.04-13.398-8.029-14.717-10.685-13.38-4.013-13.379-8.028-14.717-5.333-13.398v-14.717l-14.717-6.653-9.366-13.416-13.36-13.38 9.346-14.717-10.685-13.38-2.675-14.717-5.352-13.38-12.023-14.716-13.38-12.042-10.703-14.717-8.009-13.36-12.041-14.718-8.028-5.352-13.36-12.06-13.38-10.703-1.338-13.38-10.685-14.717 3.995-13.38-10.685-13.36-13.379-13.417-13.36-8.046-14.718-6.671-14.699-1.3-10.703-13.417-13.361 2.694-14.717-5.333h-6.69v-14.717l-2.676-13.398-2.657-13.398-4.014-13.38-2.676-14.735-8.027-13.343-1.338-13.416-12.023-14.717v-13.38l-5.352-14.717-2.676-14.717-6.69-13.361-5.351-14.718-2.676-13.397-8.01-14.718-5.351-13.398-10.703-13.398 13.379-5.333 6.69-13.38-8.028-14.698-13.38 1.32-12.022-13.398-10.704-13.398-13.38-13.343-13.36-9.365-14.698-1.357-13.38-6.69-13.38-13.379-14.698-10.703-13.38-8.01-6.67-2.712-13.38-6.671-13.36 5.351-14.718-6.69-13.38-12.04-10.684-14.718-1.338-13.38v-28.078l-5.352-29.453-5.352-13.379-13.36-2.694-14.7-5.352-13.378-12.023-9.366-13.398-4.014-13.38-4.014-14.735-14.698-5.333-9.366-13.361-9.365-13.398-8.01-13.398-6.69-13.398-14.716-9.347-5.334-13.36-14.717-9.385-13.36-6.69h-13.38l-14.699 2.676-14.717-2.676-13.36-12.041-10.704-13.38-9.366-13.379-9.347-14.698-13.38-13.417-13.36-2.676-12.041-13.36-13.361-8.065-13.361-14.718-10.704-13.379-14.717-13.36-12.041-13.38-14.699-10.722-13.36-12.042-9.366-13.379-13.361-13.38-4.014-14.717-5.352-13.398-5.351-13.379-10.704-14.717-1.32-13.361-8.045-14.717-1.32-13.417 2.676-13.38-4.014-13.379v-13.379h13.361l13.38-8.046 14.698-6.653 13.38 9.366 14.698-5.37 13.38 6.67 14.698 4.033 13.38 6.671 12.022 13.417 12.042 13.379 13.36 12.004 14.718 8.065 14.699 3.995 13.38-1.338 13.36 8.065 14.717 1.3h13.361l14.717 1.339 13.361-1.338 14.717-5.352 13.38-5.333 13.36 2.676 14.7-1.338h14.716l13.361 5.352 10.704 13.379 13.36 1.338 13.38-5.352 13.36-4.014 14.718-6.69 4.014-1.3 13.36 9.365 9.366 14.718 13.38 13.36 13.36 9.366 14.718 13.38 13.36 8.046 6.69 14.717 2.676 13.38 4.014 14.717v13.379l14.698 4.051 13.38 5.315 13.36 9.402 12.042 14.718-4.014 13.379v9.347l-1.338 13.38-13.38 6.707 13.38-2.713 6.69 13.398 14.699 1.32 13.379 6.69 13.36 8.027 14.718 13.398 13.36 4.032 4.015 13.361 12.041 14.718 13.36 8.046 13.38 5.333 13.38 4.05 13.36 5.334 14.7 9.366 13.378 6.67 13.38 12.042 14.699 13.38 13.379 5.333 12.023 13.398 13.38 13.397 14.698 5.334 13.38 2.694 10.684 13.38 10.703 14.717 1.339 5.351 13.36 6.69 10.704 13.38 1.338 13.379-4.014 13.416 2.676 13.361 2.676 8.028v-17.393l13.379 5.37v13.342l6.671 14.717 4.014 2.714-4.014-14.736 4.014-13.38 13.38-4.032 8.008 13.398 10.704 14.717 5.351 13.398 4.014 13.398 5.352 14.717 10.685 13.361 14.717 12.042 13.361 10.703 14.717 1.32 13.361 9.365 13.38 9.365 9.346 13.417 2.676 13.342 8.028 9.384v-13.379l-6.69-14.717-4.014-13.38-13.36-13.398-2.676-14.717 6.69-13.38 13.36-3.995 14.718 2.658 13.36-1.338 2.676 14.736 13.38 8.046 14.698 12.004 13.38 9.384 5.351 13.38v14.717l5.352 13.38 5.333 14.717 14.718 8.027 13.36 6.69h13.38l14.698-2.657 13.38 3.995 13.38 12.023 14.698 12.041 13.36 12.042 14.718 8.046 13.38 14.717-1.357 13.36 4.014 5.353 5.351 13.379-1.338 14.717 1.338 2.695 6.69 14.717 14.717 9.366 12.023 13.379 14.717 13.38 13.361 8.046h13.38l14.698-2.695 13.38 2.695h13.36l14.718 3.995 12.023 13.398 12.041 14.717 8.028 14.717-14.718 12.06-13.379 8.01-14.699 6.708-13.36 6.67-14.718 6.653-13.38 4.033-13.36 9.365-14.699-12.004h-8.027l13.36 9.347 14.718 8.027 14.699-12.022h13.36l13.38-5.334 13.38-1.375 14.698-9.347 13.38-9.365 14.698-5.352 13.38-10.703 14.698-9.366 13.38-6.671 14.717 4.032 13.36 10.667 13.38 12.041 5.333 14.717 13.38-2.676 13.36 13.398 2.676 13.361 2.676 14.718 4.014 13.379 1.338 4.05-14.718 2.658-13.36 5.333h-13.38l-6.671 13.398-14.717 10.704-13.361 8.046-13.38 8.046 13.38-4.014 13.36 5.333-8.027 13.398-14.699 2.658 5.333 4.032h13.38l14.717 2.676 13.36 9.347-13.36 9.365-14.717 2.714-13.38-12.06v5.37l8.047 14.717-4.014 14.717-6.69 13.38 13.38 6.597" clip-path="url(#b)" display="inline" opacity="1" fill="none" stroke="#000" stroke-width="1" stroke-opacity="1" transform="translate(903.806 -135.69)"/></g><g display="inline" fill-opacity="1"><path d="M392.881 461.732l-3.587-1.346s-.897-1.345-.448-4.036c.448-2.69.448-.896.448-2.69v-4.036l.897-3.139-1.345-2.242-2.243-2.242-1.793-3.14-4.036-.896h-3.14l-2.241.448-2.24 2.671-2.21.552.276 2.763-1.105 1.657-2.21-1.657-.276 1.381s.553.553 1.105 1.934a227.712 227.712 0 0 1 1.381 3.591v3.039l-.828 1.933-1.658 1.934s-.829.553-1.381 1.657c-.553 1.105.276 1.658-.829 1.934s-3.315 1.105-3.315 1.105.553 1.105-.552 1.105h-3.315v1.658l-2.21 1.657-.276 1.381-2.487 1.934-1.657 1.381h-3.315l-1.105 1.105-1.105 2.21 1.105 2.21-.552 4.144-1.382 1.105-1.657 1.105v1.657l-1.105.553-.829 1.657v1.381s.276.829.276 1.934-.828 2.762-.828 2.762-1.381-1.105-1.381 0v1.934l-1.104 2.386s-.418-.21-.837 1.464c-.418 1.674-.837 1.883-.837 3.138s-.418 3.138-.418 3.138.21 1.674.21 2.51c0 .837.208 2.092.208 2.092l.837 2.302s-1.883-.628-1.673.836c.209 1.465 0 1.883 0 1.883l.836 1.046 1.256.21s.418 1.046.418 1.882c0 .837-.21 2.092-.21 2.092s-1.045-.209-1.045 1.046c0 1.256.209.419 0 1.674-.21 1.255-.837.21-.837 1.464v2.51c0 1.047 1.255 1.674 0 1.884-1.255.209-1.464.627-1.464.627l-.837 1.046.627.419 1.674.627-.628 1.255-1.464.628.628 1.046.627.837 1.046.418.837 2.72-.418 2.929v2.51l-.837 2.092-1.674.21-.209 1.882s0 .418-.837 1.255 0 1.674-.837 2.51c-.836.837.21 0-.627 1.674s-.419 1.883-1.255 2.092c-.837.21-1.674 0-1.883 1.255-.21 1.256-.837 1.674-.837 1.674l-1.255.837-2.092.627s-.628-1.464-1.465 0c-.836 1.465-1.464 1.465-1.464 1.465h-2.092s-.418-.21-1.046.837c-.628 1.046-1.674 1.882-1.674 1.882h-1.882c-.837 0-1.883.628-1.883-.418v-2.092H309.754l-2.092-1.464s0-.21-1.046-.628c-1.046-.418.628-1.255-.627-2.72-1.255-1.464-.837-1.046-.837-1.046l1.883-.209.418-2.301-1.883-1.674-.418 1.256-1.046 1.255-1.464 1.255-1.256.628s0 1.255-.627 2.092c-.628.836-1.883.418-1.883 1.673 0 1.255-.628 3.138-.628 3.138l-.627 1.255-.419 1.465-.418 1.673.418 1.465-.627 1.883 1.255 1.255s1.255.837 1.046 1.673c-.21.837.21 1.256-.628 1.883-.836.628-1.464.628-1.464 1.674v2.51s-1.255 0-1.255 1.255c0 1.256-.837.628-1.046 1.883-.21 1.255-.628 1.883-.628 1.883l-1.046.837-.837 1.464s-1.673-.418-2.092.419c-.418.836-.418 1.882-.418 1.882s-1.674-1.046-1.883 0c-.209 1.046-.209 2.51-.209 2.51l-1.046 1.465-1.046 2.301-1.464 1.465h-2.092l-.837.837c-1.046 1.046-1.465 1.255-1.465 1.255s1.046 2.51.21 2.51c-.837 0-2.302-.837-2.93 0-.627.837-.418 1.046-.418 1.046v3.975l-.627 1.674s-.419.418-.419 1.464-.209 1.674-.209 1.674l-1.673 1.464.209 1.464-1.465 1.883-1.255 1.465-.418 2.51-1.674.418-1.464.419-1.883.209-1.464-1.255-1.465-.837-1.046-2.929.21-2.301-.628-2.51-.628-2.302-1.464.837-.837 1.046s-.419-1.046-.628-1.883c-.209-.836-.418-1.255-.418-1.255l-1.674-1.046s-.209.21-1.464-1.255c-1.255-1.464-.419-1.255-1.255-1.464-.837-.21-2.092-.21-1.674-1.256.418-1.046 1.464-2.092 1.464-2.092l1.465-.627-.837-1.883s-1.255-.21-.628-1.674c.628-1.464.628-.836.628-1.673 0-.837-.628-1.674-.628-1.674l-1.464-1.255v-1.255s-1.883.418-1.883-.837v-1.255l-1.673-1.046-1.674.627-.837.419-2.72.627-1.255.419-1.255 2.092 1.046 2.3v1.256l-.837 1.046-.627 1.674-1.046.209-.419 1.255s-2.928-1.255-2.928-.418-.21 1.883-.21 1.883l-1.255 1.046-1.883.627-.627 1.046-1.046.628-.668 1.252-.16 1.11-.634 1.747h-1.746l-1.905.159h-2.698l-.476-.16-.635-1.269-1.429-.952-1.429.793.477 1.112 2.063.634.159 1.112.635 2.222.635 1.587s1.746-.476 1.27 1.111c-.477 1.587-.16 1.746-.16 2.54s1.112 2.857 1.112 2.857l1.746 1.746 3.016.952 2.222-2.063 1.429-1.27s.952-.952.952-1.746 1.111-2.38 1.111-2.38l2.381-.16h1.587l1.588.953 3.174.476 2.54-.318s.317-.158 1.587.635c1.27.794 2.699.953 2.699.953l1.904 1.587 2.54 1.27c.952.476 3.492 1.587 3.492 1.587l2.381-.635 1.429-.158 2.222.952s1.111-.476 1.111.317c0 .794 1.746 2.064 1.746 2.064s1.429.159 1.746 1.27c.318 1.11 1.587 1.746 1.587 1.746l1.746-.635 1.112-1.429 2.063.159s.317.317 1.429 1.27c1.11.952 1.746.794 2.38 1.11.635.318 1.588.477 2.223.318.635-.158 2.063.477 2.698-.476.635-.952.794-2.38.794-2.38s.793-1.112 2.222-.636c1.429.477 2.381.477 3.333.477.953 0 2.54-.16 2.54-.16s.318-1.586.952-2.221c.635-.635.794-1.27 1.588-.953.793.318 3.968.635 3.968.635l3.016.318s2.857.158 3.174-.794c.318-.952-.158-1.587 1.27-1.587 1.429 0 5.715.317 5.715.317l5.555.159s.953.159 1.587.317l4.445 1.111 3.968-.158h4.127c.794 0 3.333-.318 3.968-.794.635-.476 1.27-1.746 1.27-1.746l3.969-.635 2.38-.159s1.43 1.111 2.381 1.588c.953.476 2.699 1.11 2.699 1.11l1.27-1.745s-.159-1.27.635-2.064c.793-.793.158-.952 1.27-1.27 1.11-.317 2.063-1.428 3.174-1.11 1.111.317 6.825.634 6.825.634l3.175-.793 3.175.476 2.38.476 3.493.794 4.444 2.222 3.81 2.38 3.968 2.858s1.587 1.111 1.587 2.063c0 .953 1.27 2.858 1.27 2.858l3.81.158 2.698 1.429s2.063 1.587 2.857 1.905c.794.317 2.857 1.27 3.65 1.746.795.476 2.7.635 2.7.635l1.27-1.27 1.745.158 1.27 1.27s.952-.793 1.111-.158c.159.634 1.587.952 1.587.952l.635 1.429 3.81.158 1.905 1.905.317 1.746-1.111 1.27-1.111.794 1.428.476 3.016.158s.635.318.794.953c.159.635-1.111.635.159 1.428 1.27.794 4.285 1.746 4.285 1.746l.635-1.11 1.27-.16s1.905.318 2.064.953c.158.635.952 1.27.952 1.27l2.381.159s3.333.317 2.381.158c-.952-.158 3.968.635 3.968.635s2.54.476 3.175.159l2.54-1.27 1.27-1.905h3.174s-.159-1.746.476-2.222 2.857-.952 2.857-.952-.635-1.429 1.111-1.27c1.746.159 2.381-.159 3.334 0 .952.159-.159-1.111 2.222.317 2.38 1.429 3.492 1.905 4.127 1.588.635-.318 1.905-.318 2.698-.318.794 0 3.016-.317 3.016.318s1.588.635 2.222 1.587c.635.952 2.699 2.222 2.699 2.222s.317 1.27.317 2.222c0 .953-.635 3.016-.317 3.651.317.635.635 1.746 1.587 1.587.953-.158.953-1.587.953-1.587s.952-.952 1.11-.317c.16.635.477 1.746 0 2.698-.476.953-1.587 1.429-1.587 1.429l.477 3.492-1.747.952-1.428 2.222s.317 1.905-.318 2.064c-.634.159-2.38 1.587-2.38 1.587s-.635.476-1.588 1.111c-.952.635-1.905 1.111-2.38 1.746-.477.635-1.588-.317-2.382.635-.793.953 0 1.746-1.11 2.857-1.112 1.111-1.43 2.223-2.54 2.223h-1.905s-1.429 1.904-1.27 2.698c.159.794 1.587 2.698 1.587 2.698s1.905.794 1.746 1.588c-.158.793.794 1.27-1.11 2.698-1.906 1.429-4.445.953-5.08.953-.635 0-1.588-1.43-3.492-.318-1.905 1.111-2.699.476-3.175 1.746s1.111 2.222-.476 2.699c-1.587.476-.476 1.904-1.429 1.11-.952-.793-.476 3.016-.476 3.016l-.952 1.588-.953 1.11.794 1.112s-.159 1.587-.159 2.222.318.794 0 1.429c-.317.635-.158.317-.793 1.11-.635.795-.635 2.382-.635 2.382l1.428.952s.635.953-.158 1.429c-.794.476-1.112.793-.953 1.905.159 1.11.635 1.587 1.27 1.904.635.318 1.111-.158 1.905.476.793.635.476 0 1.587 1.588 1.111 1.587.952 3.65.952 3.65l.794 2.54s.953 1.27 1.746.794c.794-.476.953-1.429.953-1.429s.158-1.746 1.27-1.428c1.11.317 3.333-.476 3.491.476.16.952 0 1.111.794 1.905.794.793 3.016 1.27 3.016 1.27h1.905s.793 1.27 1.746 1.11c.952-.158 1.587 0 1.587 0s.952 1.112 1.587 2.064c.635.953 2.223 2.064 2.223 2.064l2.063.635s1.429 1.27 2.222 1.27c.794 0 2.54.317 2.54.317l2.381 1.587h2.38l1.43-1.27 1.745-.158 1.27.952 5.556.635 3.81-.318 4.126 1.112 3.334.476 3.333.158 2.064.16 1.904-.477 1.429.794 3.333.476s3.175.159 4.127 0c.953-.159 2.54-.159 2.54-.159l4.762 1.111s.159-.793.952-.793c.794 0 2.857 0 3.651-.318.794-.317 4.286-.159 4.286-.159s2.54.635 3.492.635 4.603-.476 4.603-.476.159-.317 1.111.318 3.65.635 4.286.635h7.143s1.428.317 2.222 1.11c.793.794 3.174 1.27 4.127 1.27.952 0 3.492-.476 4.603-.158 1.111.317 1.905.317 2.698.317h3.492l5.239.635 5.873-.159s1.904-1.746 2.54-.476c.634 1.27.158 1.429 1.27 1.429 1.11 0 1.745-.159 1.745-.159s1.587 2.064 2.222 2.064h3.175c.794 0 2.38-.16 2.38.476 0 .635 1.588.635 2.382.635s1.587-.953 2.063-.16c.477.795 1.111.795 1.905.795h2.54c-.635 0 7.143 1.428 7.143 1.428s2.38-.317 2.698.318c.318.635 3.81 1.587 3.81 1.587h4.285l3.175.317 3.492.16s3.81.951 4.92.475c1.112-.476 2.858-.952 2.858-.952l2.222-1.111.635.635 3.175 1.11 4.285.794 3.492.635s2.223-.317 3.016.635c.794.953 1.587 2.381 1.587 2.381s.794 1.429 1.905 1.429h1.905l1.429 1.746s1.746.317 2.38.317c.635 0 1.43.794 2.064 1.111.635.318 1.111-.793 1.746.16.635.952.952 1.428 2.381 1.428h1.746l3.333.476 2.381.952s.476 1.746 1.111 1.905c.635.159 2.223.952 2.223.952l1.904.953.794 1.746s.794 1.587 2.381 1.587h2.381l.794 2.064 1.587 1.27 2.698 1.428s1.588.794 1.588 1.587v2.064s2.063-.318 2.063.635c0 .952-.317 1.11-.317 2.38 0 1.27-.953 1.43.158 1.906s7.143.476 7.143.476l5.873.317 5.238.159 2.381 1.428h1.429s2.698-.476 2.38.318c-.317.794.477 2.38.477 2.38s2.381-.793 2.698.16c.318.952 1.746-.477.794 1.904s-1.111 1.746-.952 2.381c.158.635 2.698 1.429 2.698 1.429l3.968.476 1.27 1.746 2.54.476s1.746-.793 2.38-1.27c.636-.476.794-.952 1.588-1.27.794-.317 1.746-.476 2.699-.476.952 0 2.54-.317 3.174.318.635.635 2.381.635 3.175.635.793 0-.159.159 1.746 1.11 1.905.953 4.762 1.588 4.762 1.588h2.857s2.698 1.429 3.333 1.27c.635-.159 3.81-.159 3.81-.159s.317-.635 2.063.953c1.746 1.587 1.587 2.063 2.857 1.746 1.27-.318 1.27-1.27 2.064-.794.793.476 1.905 1.429 3.174 1.429 1.27 0 1.588-.477 2.381 0 .794.476 1.27 1.11 2.223 1.11.952 0 1.428.16 1.428.16l3.175.476 1.27.158 2.063.477 2.857 1.428 3.175.635 3.492.794s2.38.317 3.968.317c1.587 0 5.238-.476 5.238-.476s1.588.476 3.016.952c1.429.477 3.651 1.112 4.286 1.112.635 0 2.857.476 4.127.476 1.27 0 .635 0 1.905.635s6.984.635 6.984.635.158-1.112 1.27-1.27c1.11-.16 3.65-1.905 4.285-.794.635 1.111.794 1.587 1.905 1.905 1.111.317 6.667.159 6.667.159l2.38-.635 2.064-1.746s2.54-.477 3.492-.477c.953 0 2.857-2.063 3.651-2.698.794-.635 1.27-.952 1.27-2.54 0-1.587.635-2.698 0-3.65-.635-.953-.952-2.223-1.111-3.016-.159-.794-.476-3.016-.476-3.016s-.318-1.429-.318-2.222c0-.794 1.587-2.54 1.587-2.54s.794-1.27 1.429-1.27 1.27-.159 1.905-.476c.635-.318 3.65-1.587 3.65-1.587s1.27.476 1.905.476 2.381-.318 3.334-.318c.952 0 .635-.158 1.746-.476 1.11-.317 2.698-.952 2.698-.952l3.333-.635 3.492.635 1.747.317 2.54.476.1 1.27 1.11 1.27.126 1.587.568 1.905 1.111.952s2.857.635 2.54 0c-.318-.634-.318-1.11-.794-2.063-.476-.952-.952-1.111-1.111-2.222-.159-1.111.159-1.588.476-2.222.318-.635 0-1.43 1.111-1.43s2.064-.793 2.064-.793 1.11-.158 2.222-.158c1.111 0 1.27-.318 2.698-.16 1.429.16 4.604-.158 3.016.318-1.587.477 1.27.318 1.27.318l2.54 1.746s1.428 1.746 3.016 1.746c1.587 0 2.063-1.27 2.063-1.27s.318-1.905 1.27-1.905 3.333.159 3.333-.635c0-.793 1.746-1.11 1.746-2.063 0-.953.635-1.27 1.111-2.54.477-1.27.477-.635.635-2.063.16-1.429-.317-1.588.318-2.381.635-.794.952-2.54 1.587-2.699.635-.158 0-.158 1.905-.158s2.063-.953 2.857 0c.794.952 1.429 2.063 1.429 1.11 0-.952.158-2.222 1.428-2.222s1.588-.317 1.588.953.793 3.333.793 4.286c0 .952.318 2.222.318 3.174 0 .953.317 1.746 0 2.54-.318.793.158 2.54.158 2.54l1.746 1.904s.16.953.635 1.746c.477.794 5.155 3.706 4.362 3.864-.794.159-6.901-.372-7.695-1.007-.794-.634-.159-.158-2.064-1.904-1.904-1.746-2.38-2.223-3.015-2.381-.635-.159-3.334-.953-4.127-.953-.794 0-2.699-.793-3.969 0-1.27.794-1.904 1.429-1.587 2.699.318 1.27 2.064 1.587 1.111 2.38-.952.794-1.905 1.747-1.746 2.54.159.794 2.064 2.223 3.016 2.223s4.444 0 5.397.158c.952.159 3.81.794 4.444.794.635 0 2.857-.794 4.603.317 1.747 1.112 4.127 1.112 5.08 1.27.952.159 2.698.318 3.65.635.953.318 6.35 1.27 6.35 1.27s2.698.952 3.968 1.587 3.65.953 4.92 1.429c1.27.476 3.81.952 4.604.794.794-.16 3.492-.16 2.698-1.112-.793-.952-4.444-2.222-4.444-2.222s-2.064-1.428-3.175-1.746c-1.11-.317-1.587-1.11-2.857-1.746-1.27-.635-4.127-2.54-4.127-2.54l-12.66-2.082s1.026-1.853 10.755-.933c1.012.095 1.588-1.746 2.064-.635.476 1.11 2.063 2.38 2.063 2.38s.794.318.953-.634c.158-.953-.159-1.905.952-2.064 1.111-.158.953.476 1.111 1.111.159.635.635 1.429.159 2.223-.476.793-2.064 1.27.159 1.746 2.222.476 3.016-.477 3.016-.477s.634-.793.793-1.428c.159-.635.953-.953 1.111-1.746.16-.794-.476-1.27.794-1.429 1.27-.158 1.27.318 2.38-.317a517.003 517.003 0 0 0 3.017-1.746l1.905-1.27 1.746-1.111h2.222c3.174 0 5.555-.953 5.555-.953h5.714l7.937-.158s2.381.476 4.286.793c1.905.318 4.762 1.27 4.762 1.27l4.444.953 5.715.158s3.65.794 4.444.794 4.92.794 4.92.794h2.699c.635 0 .794-.16 3.016.158s3.858-2.125 4.81-.856c-.055-30.82.68-85.567 1.305-163.068h-2.878s-1.439.24-2.877.719c-1.44.48-3.598-.24-7.434.96-3.837 1.198-3.118 1.678-6.235 1.678h-6.715c-4.556 0-.72.24-5.995-.24-5.276-.48-5.276-.24-7.195-.72-1.918-.48 1.2.48-3.117-1.438-4.317-1.919-2.878-1.919-5.036-1.919-2.158 0-1.918.48-3.837-.24-1.918-.719-.24 0-3.597-1.438-3.357-1.44-4.556-1.44-4.556-1.44v-1.438l-3.598-1.2-4.556-2.397s-3.357.48-3.357-1.919v-3.597l-1.2-2.638s-1.198 0-1.438 1.2c-.24 1.198.72 1.918-.48 2.158-1.199.24-2.398.48-3.357.48-.96 0-2.878-.72-2.638.239.24.96 2.398 1.2 2.398 1.2v1.678c0 2.158-.24 2.158-.72 3.837-.479 1.678-.479 1.678-1.918 2.398-1.439.72-.72.24-2.398.959-1.678.72-3.117 1.439-5.036.72-1.918-.72-1.918.479-3.117-.96-1.2-1.439-2.398-2.638-3.597-3.597-1.2-.96-.24-.72-2.878-1.918-2.638-1.2-2.398-1.2-4.077-1.44-1.679-.24-2.878.24-3.837-.479-.959-.72-1.199-1.679-1.678-2.878-.48-1.199-.24-2.158-1.68-2.398-1.438-.24-3.117-1.199-4.316-1.199-1.199 0-3.597-.48-3.117.48s3.117 2.398 2.398 3.357c-.72.96-.48 1.919-1.679 1.919s-2.158.48-2.158.48l-1.679 1.918s-1.678.959-2.638.959h-4.796c-1.199 0-3.117.48-5.275 0-2.159-.48-4.557-.24-5.516-1.199-.96-.96-1.2-.72-1.919-2.158-.719-1.44-.959-1.44-1.678-3.597-.72-2.159-.96-3.598-.96-3.598l-2.637 1.919s-.96.96-2.878.96c-1.918 0-3.118.479-4.317-.72-1.199-1.2-3.117-1.919-3.117-1.919s0-1.439-.72-2.638c-.719-1.199-.719-1.199-1.678-2.877-.96-1.679-1.439-.96-2.638-3.358-1.2-2.398-1.2-2.158-2.398-4.316-1.2-2.158-1.679-2.398-1.679-4.796s1.44-1.679-.24-5.516c-1.678-3.837-1.438-3.117-1.678-4.316-.24-1.2-1.919-6.235-1.919-7.674 0-1.44-.24-1.919.24-5.276.48-3.357.48-3.597.48-5.516 0-1.918.48-3.597 0-4.796-.48-1.199-1.679-3.117-1.679-3.117l-5.036-2.159s-4.077-3.837-5.755-5.036c-1.679-1.199-2.159-.72-4.317-3.597-2.158-2.877-4.077-5.515-6.235-7.434-2.158-1.918-2.638-2.398-3.597-3.837-.96-1.439-3.117-3.357-3.117-3.357s-.96-.72-1.2-1.679c-.24-.959-1.199-3.357-2.158-4.556-.959-1.2-.72-.96-2.158-3.357-1.439-2.398-.72-2.159-2.158-3.837-1.44-1.679-1.2-1.919-2.878-3.118-1.679-1.199-1.439-1.918-3.597-2.638s-2.398-1.439-4.077-.959c-1.679.48.72.72-2.878.72-3.597 0-3.117-.24-5.755 0s1.679.24-3.118.24c-4.796 0-6.235-1.44-6.474 0-.24 1.438 1.199 2.877 1.199 2.877l.24 2.638-3.118 1.199s0 .48.72 1.439c.719.959.719-.72 1.198 1.918.48 2.638 3.118 1.2-1.438 3.358-4.557 2.158-5.036 2.877-5.036 2.877s-.96 1.2-2.159 1.44c-1.199.239-1.199.719-3.597.239-2.398-.48-1.918 0-4.796-.96-2.878-.959-.72-.24-4.077-1.438-3.357-1.2-.72-.48-3.837-1.439-3.117-.96-1.438-.24-3.837-1.439-2.398-1.199-2.398-2.158-5.036-3.357-2.637-1.2-1.678-.24-3.597-2.158-1.918-1.919-.48-1.44-4.076-3.118-3.597-1.679-2.878-2.158-5.276-2.398-2.398-.24.24-.72-3.357-.96-3.598-.24-3.358-.479-6.235-1.198-2.878-.72-2.399-.48-4.077-1.44-1.679-.958-1.2-.239-2.638-1.918-1.439-1.678-.72-.48-2.158-2.877-1.44-2.398-1.679-2.878-1.679-2.878l-4.556-2.158s0 2.398-1.2 2.877c-1.198.48-.479.48-3.357.72-2.877.24-2.398-.48-3.597.24-1.199.719-2.158.719-3.117 2.158-.96 1.439-2.159 2.158-3.118 3.117-.96.96 3.597 1.919-2.638 2.159-6.235.24-1.918 1.678-1.918 1.678s-.24.24-2.878-1.438c-2.638-1.68-1.918-4.797-3.357-2.638-1.44 2.158-1.679 5.275-1.679 5.275s-1.199 2.398-2.638.96c-1.439-1.44-1.918-2.159-2.877-3.118-.96-.96-1.44-.96-2.878-2.398-1.439-1.439-1.439-1.199-2.158-2.398-.72-1.2-2.399-1.679-2.399-1.679s.48.96-.959.48-2.398-1.679-3.597-1.919c-1.199-.24-2.398-.719-4.556-1.918-2.159-1.2-.24-.72-3.118-1.679-2.877-.959-2.398-1.918-4.316-2.158-1.919-.24-1.2-.24-3.118-.72-1.918-.479-.72 0-4.316-1.438-3.597-1.44-3.118-1.44-4.077-2.398-.96-.96-3.118-3.597-3.118-3.597l-.48-1.68-3.596-3.836s-.24-3.357-1.679-4.796c-1.439-1.44-2.638-2.398-2.638-2.398s-.24-2.878-1.199-4.317c-.96-1.439 0-2.158-2.638-4.077-2.638-1.918-2.398-1.438-3.117-2.398-.72-.959-4.757-4.496-4.757-4.496l-3.02-2.35-2.685-2.013h-11.076s-2.685-.672-4.027.671c-1.343 1.342-2.014 2.35-3.692 2.35-1.678 0-4.028 2.013-4.028 2.013l-3.691 1.007-5.035-1.343s-1.342 0-3.692-1.342c-2.349-1.343-3.356-1.007-4.363-2.35-1.007-1.342-2.014-3.356-2.014-3.356l-1.678-3.02-4.027-.672-.671 1.679-4.363.335s0-2.685-1.679-3.02c-1.678-.336-5.705-1.343-5.705-1.343l-1.678.671 1.342 3.021 1.007 2.35v3.356l-1.007 3.356s-1.007 1.007-1.342 2.35c-.336 1.342-2.014 3.355 0 4.027 2.013.67 2.35.67 2.35.67s.335 4.028.335 5.37c0 1.343.335 1.008.335 2.686s1.678 2.014-.335 3.356c-2.014 1.343-11.076 3.356-11.076 3.356l-7.048 1.007-4.027 1.678-5.706.672-4.028 1.342s-6.169 1.114-7.847 1.114c-1.678 0-4.906-1.45-6.249-1.785-1.342-.336-7.719-.671-7.719-.671s-1.343-2.685-3.02-4.7c-1.679-2.013-1.008-2.013-2.686-5.37-1.678-3.355-2.349-5.37-2.349-5.37l-4.363-2.349s-1.007.336-4.028.672c-3.02.335-3.691 0-5.37 0-1.678 0-5.37-1.343-5.705 0-.336 1.342-5.035 2.685-5.035 2.685s-.67-2.685-3.691-3.02c-3.02-.337-3.02-2.686-4.363-1.008-1.343 1.678-1.343 3.692-3.021 5.035-1.678 1.342-5.034.335-6.041 2.013-1.007 1.678-2.35-.335-4.699-.671-2.35-.336-3.356.336-4.699-1.342-1.342-1.679-2.014-2.35-2.014-2.35l-3.02-1.342s-2.014 1.007-3.692 0c-1.678-1.007-1.342-1.007-3.02-2.35-1.679-1.342-2.686-2.349-4.364-3.02-1.678-.671-4.363-2.35-4.363-2.35s-1.342-.67-3.02-2.013c-1.679-1.343-2.014-1.007-3.692-1.678-1.678-.672-2.35-2.35-4.699-2.35-2.35 0-2.35.336-2.35.336s-1.006.671-1.342 2.35c-.335 1.677-.671 4.362-.671 4.362l-2.685 3.02s-.336-.335-1.343 1.679c-1.006 2.014-1.342 2.35-1.342 2.35l-5.034 2.013-2.35 1.343h-3.356s-.671-1.007-2.014-1.679c-1.342-.67-3.692-1.342-3.692-1.342l-1.342-1.343z" fill="#e9e9e9" stroke="#000" stroke-width="1.417" stroke-linecap="butt" stroke-linejoin="miter" stroke-miterlimit="4" stroke-opacity="1"/><path d="M136.86 423.922s.42 0 1.473 1.474c1.052 1.473.842 1.473 1.473 2.526.632 1.053.632.631 1.685 1.474 1.052.842 2.947 1.052 2.947 1.052l1.053-1.263v-2.737s-2.106-2.526-2.527-3.368c-.42-.842-1.052-1.474-2.526-2.316-1.474-.842-3.368-1.895-3.368-1.895l-1.053.842.842 4.21zM225.912 424.764l-1.474.842s-.632.842 0 1.684 2.105 1.895 2.105 1.895 3.158 1.053 3.158.21c0-.842 1.053-1.684 1.263-2.526.21-.842 1.053-2.316 1.053-2.316l-.21-1.894-1.685-1.263v2.105l-1.263 1.684-1.053.21-1.894-.631zM266.543 447.08s-1.684 1.263-1.473 2.526c.21 1.263.842 2.526.842 2.526l2.737 1.895h3.368l1.474-1.263s.42-.842.42-2.105-2.526-3.58-2.526-3.58l-1.894-.21-2.948.21zM273.701 434.027l-1.263 2.737s-1.684 1.474-.842 2.316c.842.842 1.895 2.737 2.947 2.316 1.053-.421 1.263-1.474 1.685-2.316.42-.842.842-1.053 1.684-2.105.842-1.053.842-1.685 0-2.527-.842-.842-1.053-.842-2.106-.842-1.052 0-1.263.21-2.105.421zM259.596 489.185s-1.895-.21-2.526.842c-.632 1.053-.842 1.053 0 1.684.842.632.842.842 2.526 1.264 1.684.42 4 .842 4 .842l.21-2.316s-.842-1.474-1.894-1.684c-1.053-.21-2.106-.632-2.316-.632zM214.964 396.764s-.21 1.053 0 2.526c.21 1.474 2.316 2.316 2.316 2.316s1.895-1.053 1.895-2.316 1.053-2.105-.21-2.105h-1.685l-2.316-.421zM249.28 475.29l-1.684 2.106s-1.053 2.105 0 2.315c1.053.21 1.684 1.053 2.526.21.842-.841.842-1.052 1.053-2.104.21-1.053.842-.632.21-1.685-.631-1.052-1.684-1.473-2.105-.842z" fill="#8e908d" fill-rule="evenodd" stroke="#000" stroke-width=".709" stroke-linecap="butt" stroke-linejoin="miter" stroke-miterlimit="4" stroke-opacity="1"/><path d="M235.385 421.817l1.685-.421-1.053-1.264h-1.263l.631 1.685zM237.385 424.975l1.685-.422-1.053-1.263h-1.263l.631 1.685zM216.964 391.5l1.685-.42-1.053-1.263h-1.263l.631 1.684zM214.649 407.711l1.684-.42-1.053-1.264h-1.263l.632 1.684zM240.543 427.29l1.685-.42-1.053-1.264h-1.263l.631 1.684zM215.912 388.975l1.684-.422-1.053-1.263h-1.263l.632 1.685zM212.122 394.87l1.684-.422-1.052-1.263h-1.263l.631 1.684zM220.754 427.29l1.684-.42-1.053-1.264h-1.263l.632 1.684zM277.596 432.554l1.684-.422-1.052-1.263h-1.264l.632 1.685zM263.49 480.132l1.685-.42-1.053-1.264h-1.263l.632 1.684zM244.543 482.87l1.685-.422-1.053-1.263h-1.263l.631 1.684z" fill="#8e908d" fill-rule="evenodd" stroke="#000" stroke-width=".354" stroke-linecap="butt" stroke-linejoin="miter" stroke-miterlimit="4" stroke-opacity="1"/><path d="M211.32 566.607c0 .842.21 2.737-.843 2.737-1.052 0-3.158-.422-3.79.631-.63 1.053-2.315 2.105-2.315 2.105s-1.263.843-2.737 2.316c-1.473 1.474-1.684 1.263-1.895 2.316-3.795 4.096-1.41 6.979 1.264 1.474 2.315-1.053 2.315-.632 2.736-1.685.422-1.052 1.895-1.684 1.895-1.684s.842-1.895 1.895-2.105c1.053-.21 1.263-1.263 2.105-1.053.842.21 1.053.632 1.053 1.474s-.21 1.895 0 2.947c.21 1.053-.842.842.631 1.895 1.474 1.053 1.053-1.053 2.106 1.053 1.052 2.105 1.052 2.947 1.052 4 0 1.052.21 1.473-.42 2.526-.632 1.053-1.895.421-2.527 1.684-.632 1.263-2.316 2.737-.842 2.948 1.474.21 2.947.42 3.579-.421.631-.843 2.316-1.895 2.737-2.948.42-1.052 0 .21 1.052-1.684 1.053-1.895.421-2.737 1.684-1.684 1.264 1.052 3.79 2.316 4 1.263.211-1.053-.42-.632.211-2.316.632-1.684 1.053-2.737 1.053-4v-2.105-2.526-2.948l-.632-2.947.21-1.263 2.527-2.106s-1.474-2.105-1.895-1.052c-.42 1.052-1.895 1.895-2.737 1.684-.842-.21-2.947-.421-2.947-.421l-1.474 2.316s.632 1.263-1.052 1.052c-1.685-.21-2.316-1.473-2.316-1.473l-1.895-1.053-1.474 1.053z" fill="none" fill-rule="evenodd" stroke="#000" stroke-width="1.417" stroke-linecap="butt" stroke-linejoin="miter" stroke-miterlimit="4" stroke-opacity="1"/><path d="M225.07 602.659s-.632.21-.632 1.263.21 2.105 1.474 1.895c1.263-.21 1.473-1.053 1.473-1.053l.21-2.526-2.525.42z" fill="#7ab98b" fill-rule="evenodd" stroke="#000" stroke-width=".709" stroke-linecap="butt" stroke-linejoin="miter" stroke-miterlimit="4" stroke-opacity="1"/><path d="M280.228 654.659s-3.369 1.052-1.264 2.316c2.106 1.263 2.527 2.315 4.21 1.684 1.685-.632 2.738-1.895 2.738-1.895s-.421-1.895-1.684-2.105c-1.264-.21-3.79-.421-4 0z" fill="#7ab98b" fill-rule="evenodd" stroke="#000" stroke-width="1" stroke-linecap="butt" stroke-linejoin="miter" stroke-opacity="1"/><path d="M328.228 647.08s-3.79.631-2.737 1.473c1.052.843 4.42 1.474 5.263.422.842-1.053 1.895-3.158.842-3.158s-3.579 1.263-3.368 1.263z" fill="#7ab98b" fill-rule="evenodd" stroke="#000" stroke-width=".709" stroke-linecap="butt" stroke-linejoin="miter" stroke-miterlimit="4" stroke-opacity="1"/><path d="M417.585 1019.06v-3.412s.263-2.362.263-3.937v-3.15l.262-4.199 1.05-3.674s1.312-2.625 1.837-3.937c.525-1.313 2.363-2.362 3.15-3.412.787-1.05 1.837-2.1 3.412-2.625 1.575-.525 6.037-1.575 6.037-1.575l4.987-1.575 5.511-1.574s2.888-1.313 4.2-1.313h4.724l4.462-1.05s3.675-1.05 3.675-2.1.262-5.249.262-5.249.263-1.837.263-3.15c0-1.312.525-2.362.525-4.199 0-1.837 1.05-4.462 1.05-4.462l2.887-4.2 4.462-.262s2.1-.525 4.2-.525c2.099 0 3.674-.262 5.248 0 1.575.263 5.512.263 5.512.263l2.887-1.837 1.838-3.675s1.05-2.625 1.05-3.674c0-1.05.262-4.462.262-4.462v-4.987-3.675c0-1.05-.262-3.937-.262-3.937l-3.412-4.462s-4.462-2.362-6.037-2.887c-1.575-.525-2.887-2.625-4.2-3.937-1.312-1.312-3.15-4.2-3.15-4.2l-1.837-5.249s-1.312-4.724-1.312-5.774c0-1.05-.262-4.2-.525-5.25-.262-1.05-.787-3.674-1.575-4.986l-2.362-3.937-2.362-6.824s-.525-4.987-.787-6.3c-.263-1.312-1.313-3.937-1.575-4.987-.263-1.05-.263-4.461-.263-4.461s-.787-4.2-.787-5.512c0-1.313-.263-3.15-.263-4.2v-4.462-3.412s.263-3.412.263-4.987c0-1.574.787-5.249.787-6.299 0-1.05 2.1-4.724 2.1-4.724s1.05-3.15 2.625-4.2c1.574-1.05 2.624-1.837 4.724-2.624 2.1-.788 3.412-1.05 4.724-1.313 1.313-.262 5.775-.262 5.775-.262s.262-.263 4.2 1.05c3.936 1.312 5.249 1.837 5.249 1.837s3.15 3.15 4.2 3.937c1.049.787 3.674 2.362 4.723 2.625 1.05.262 7.874 3.412 7.874 3.412s3.15 3.15 4.2 3.412c1.05.262.262-.788 3.675 1.575 3.412 2.362 3.412 2.887 4.724 2.887 1.312 0 2.887 1.312 3.412 0 .525-1.313.262-3.675.787-4.725.525-1.05 0-3.674-.262-4.724-.263-1.05 0-2.1.262-3.937.263-1.837 0-2.625 1.575-3.675 1.575-1.05 2.625-2.362 4.725-2.624 2.1-.263 7.611-2.887 7.611-2.887l2.625-1.313s2.887-3.15 3.937-3.674c1.05-.525 7.349-4.987 7.349-4.987l.787-3.15s1.575-6.3 1.313-7.874c-.263-1.575-.263-6.824-.263-8.136 0-1.313 0-6.037-.787-7.874-.788-1.838-.788-2.887-1.575-4.725-.787-1.837-1.575-4.462-2.1-6.299-.525-1.837-1.575-4.987-1.837-6.562-.262-1.574-.262-6.561-.262-6.561v-5.25s2.1-1.312 2.887-2.362c.787-1.05 2.1-1.312 2.624-3.15.525-1.837 0-2.624.525-3.674.525-1.05 1.05-4.2 1.05-4.2s.788-2.624 1.837-3.15c1.05-.524 3.15-2.886 3.15-2.886l3.412-2.1.525-2.887-2.392-1.121-2.912-2.266-2.75-2.589-3.56-2.912-2.913-2.59-2.913-3.074-3.398-3.074-2.75-1.942-2.428-.809-3.884-.81-2.912-.646-2.266-.81-1.941-1.132-1.295-.162s-.97 1.133-1.133 1.78c-.161.647-1.294 2.265-1.456 2.913-.162.647-1.78 1.78-2.103 2.75-.324.971-1.295 2.104-1.295 2.104l-5.502 2.427-6.796 2.266h-8.414l-8.9.161-7.281-.161-6.796-.486-3.56-1.78-.324-2.103-1.78-.971-2.75-.647-2.59-.324-2.103-.162-1.295.647-.97-.161-3.722-4.37-4.369-5.016-2.75-5.501-2.428-4.855-1.456-1.78-3.722-9.385-2.104-5.34-.97-4.692.647-2.913-.647-2.75-2.266-2.104-3.398-.97-3.398-.81.647 2.265-4.369.486-3.398.647h-2.265l-1.618-2.589-1.133-.485h-4.369l-3.883-.162-2.59-.162-3.397.162-2.266 1.294-3.074 2.104-3.56.324-2.427-.486-2.751 2.104-2.104 1.78-3.074.647-3.074-.324h-1.619l-1.618 1.78-2.265 3.398s-1.133.162-1.456.971c-.324.81-.81 2.266-.81 2.266l-3.236 1.456-3.721.647.161 1.456 2.104.971 2.427 1.942.971 1.456-2.265 1.133h-2.913l-1.294 1.133s-.648 1.132-.648 1.78c0 .647 1.133 1.618 1.133 1.618l-1.294 2.912.161 2.266.324 3.56.324 1.618-2.751.485-1.618.81 1.618.97h1.456l-1.294 2.427s-1.942 2.266-2.104 3.075c-.162.809-.485 1.78-.485 2.75 0 .971-1.457 3.399-1.457 3.399l-2.589 4.369-3.236 3.721-2.265 1.942-2.913-1.295-.485 1.619 1.618 2.589V741.756c0 .81-1.457 3.075-1.457 3.075s-1.456 1.78-2.103 3.398c-.647 1.618-1.942 1.941-2.427 3.56-.486 1.618-1.457 3.721-1.457 3.721l-1.456 2.913s-2.427.323-2.589.97c-.162.648-1.456 3.399-1.456 3.399l-2.751 3.074s-3.236 2.104-3.722 2.751c-.485.647-2.265 1.78-3.074 2.75-.81.972-2.427 1.295-3.398 1.134-.971-.162-4.37.161-4.37.161l-2.265 2.104-5.34.809-2.427.97s-3.074-1.294-3.883-1.617c-.81-.324-3.883-2.751-3.883-2.751l-3.884-1.456-4.045-2.104s-1.457-.97-2.59-1.294c-1.132-.324-3.56-.81-3.56-.81s-3.235-.161-4.368-.323c-1.133-.162-2.59-.324-2.59-1.456 0-1.133.486-2.751.486-2.751l.18-4.14-2.445-.553-3.56-.162s-2.427 0-2.913.648c-.485.647-1.941 1.132-2.427 1.78-.485.647-5.016 3.883-5.016 3.883l-5.825.324s-3.075-.162-3.884 1.132c-.809 1.295-5.825 1.618-5.825 1.618l-6.472 1.942-4.046 1.133s-2.912.809-3.56.809c-.647 0-2.103-.324-2.912-.647-.81-.324-2.751-.648-3.398-.81-.647-.161-2.913-.97-3.884-1.132-.97-.162-3.074-.647-3.074-.647s-1.618 1.618-2.59 1.618c-.97 0-3.72-.162-4.53-.162-.809 0-3.883-.809-3.883-.809s-3.075-1.456-3.722-1.456h-2.59l-4.206-.648-1.618-1.941s-3.237-.648-2.427-.81c.809-.161-3.56-.485-3.56-.485l-2.266-1.78-2.589.486-2.103-.162s-1.457-.971-2.59-1.618c-1.132-.648-3.397-1.78-3.397-1.78s-1.133.323-2.104.162c-.97-.162-3.56-.81-3.56-.81l-3.074-.97s-2.751-.81-4.531-1.457c-1.78-.647-1.942-.97-2.913-1.132-.97-.162-3.56-.162-4.207-.162-.647 0-2.308-.886-3.602-.886-1.295 0-2.734.605-4.028.443-1.295-.162-2.402-.69-4.182-1.499-1.78-.809-3.236-2.75-3.236-2.75l-2.104-3.237-.809-.97-1.294 1.617-1.457.971-3.56 3.56-1.941 1.942-1.942.809s-.647.485-.97 1.133c-.325.647-1.619 1.618-1.619 1.618l-2.589.485-1.618 1.618-2.59.162h-2.103l-3.56.81h-3.56l-3.074.808-2.75.81h-2.266l-4.854.323s-2.751.323-3.398.323c-.648 0-2.751-.323-2.751-.323l-3.237-.162-5.016-.324-3.398-1.294-2.265-1.456-2.266-.648h-3.236l-2.589-.647-3.236-1.942-2.913-.485-2.044-1.695-1.516-.894-2.427-1.133-3.236-.97-2.913-1.78s-.323-1.133-.485-1.78c-.162-.648-.97-1.942-.97-2.59 0-.647-.81-2.103-.81-2.103s-1.456-.647-1.456 0-.162 1.78-.162 1.78l-1.618 1.294H44.175l.809 1.619.162 2.75-.486 2.751-1.618 2.104-2.75 1.294-3.237 1.295-1.942-.324-3.236-1.456-2.913-3.236-3.236-2.59-2.75-.809-2.751-.161s-1.942-.162-2.59-.81c-.647-.647-2.103-2.427-2.103-2.427l-1.456-2.427s-.648-.809-.971.486a378.315 378.315 0 0 0-1.133 4.854l-1.942 3.236s-3.56 4.207-4.369 5.502c-.809 1.294-4.369 8.9-4.369 8.9l.324 6.957s1.295 5.34 1.295 6.473 1.132 8.738 1.132 8.738-1.618 5.34-1.941 6.149c-.324.809-3.398 5.825-3.398 5.825l-1.78 2.913s-.648 2.427-1.457 2.75c-.809.324-2.912 1.942-3.56 2.428-.647.485-2.589 1.941-3.398 1.941-.809 0-4.207-.162-6.149 0-1.941.162-5.987.162-5.987.162l-4.99 1.853-4.216 3.916-1.506 3.915-.302 4.519-.3 6.927-2.41 4.82 1.204 6.024s4.82 6.024 6.928 6.024c2.109 0 4.518-.603 5.723-.301 1.205.3 4.518 1.204 4.518 1.204l4.217 4.217 3.012 6.928 1.807 5.12 2.41 5.422 3.916 7.229-.302 5.12v6.326l2.09 6.717L0 900.53l2.74 3.653 2.74 3.196 1.598 2.055 2.74 2.511s.784-2.151.653-2.936c-.13-.786-.523-1.178-.13-1.833.392-.654.916-2.487.916-2.487l1.178-.785h2.225l1.701-.393 1.702 1.571 1.57-1.702 1.44-.523s.524 1.832.786 2.356c.261.523 1.047 3.534 1.047 5.628 0 2.094-.262 2.487-.131 3.403.13.917 1.309 3.01 1.309 3.01l1.44 1.833s3.893 2.867 3.893 3.784c0 .916-3.763.012-3.763.012l-3.403.393-1.832-1.57s-.916-1.44-1.44-1.702c-.524-.262-1.963-1.178-1.963-1.178l-2.749-.917s-1.702-.261-2.618-.392c-.916-.131-2.618-.393-2.618-.393l-1.178 1.57.131 1.44s.917 1.178.917 1.702-.655.393-1.44 1.702c-.786 1.308-1.31 1.178-.786 1.57.524.393 1.964 1.57 1.964 1.57l1.832.524s2.225-.13 2.749 0c.523.131 2.618.393 2.618.393s1.178.655 2.094.655c.916 0 3.665.13 3.665.13l1.44-.13s2.487 1.308 3.141 1.44c.654.13 4.45.261 4.45.261l6.545 1.178 3.272.786 6.545 2.225s4.319 1.309 5.104 1.309c.786 0 2.88-.917 2.88-.917s-1.178-.785-1.702-1.047c-.523-.262-2.88-1.832-2.88-1.832l-2.879-1.571s-2.225-1.178-2.749-1.44c-.523-.262-3.272-1.832-3.272-1.832l-11.811-3.526 9.193-.27s1.178-1.44 1.44-.916c.262.523 1.44 1.701 1.44 1.701l1.44.917.523-1.44.524-1.047 1.701.261s.917.786.655 1.44c-.262.655-.785 2.094-.785 2.094l.523.917 1.833-.262 1.57-1.44 1.31-1.832s-.263-.917.26-.917c.524 0 2.095-.13 2.095-.13s1.178-1.048 2.225-1.179c1.047-.13 3.665-1.57 3.665-1.57l1.964-2.094 2.617.392 5.105-1.047h6.675l6.283-.262 5.236.917 7.199 1.963 6.152.262s4.842.785 5.497 1.047c.654.262 3.796.523 4.581.654.785.131 2.487 0 3.141 0 .655 0 2.226 0 2.75.131.523.131 2.748.131 3.533.131.786 0 2.225-.654 2.487 0s1.309 1.57 1.309 2.225-.393.916-.654 1.57c-.262.655-.917 1.048-.917 1.702 0 .655.262 1.833.655 2.487.392.655 2.094 1.964 2.88 2.225.785.262 3.01.393 3.533.393.524 0 1.702-.654 3.534-.393 1.833.262 3.142.131 3.142.131s.392-1.701 1.047-1.701c.654 0 1.963.392 1.963.392s2.356.524 3.665.917c1.31.392 4.974.523 5.89.523h4.32s2.617-.13 3.795 0c1.178.131 1.702-.13 2.095.393.392.523.785 1.44 1.44 1.701.654.262 2.486.131 3.01.393.523.262 1.832.131 3.141 0 1.31-.13 2.749-.523 4.32.131 1.57.654 3.926 1.44 3.926 1.44s5.105 2.094 5.89 2.225c.786.13 11.388 2.487 11.388 2.487s11.256 1.963 12.303 2.356c1.048.393 9.686 2.749 10.472 3.141.785.393 8.638 2.618 8.638 2.618l7.068 1.57 1.44 1.048 3.796 1.047 2.618.785 1.047 1.178 3.665 1.047 1.832.393s5.76 3.272 6.545 3.403c.785.131 3.927-.13 4.712.393.785.523.654.785.654 1.309 0 .523-.916 1.178 0 1.178.917 0 1.964-.131 2.487.13.524.263 2.095.917 2.88 1.44.785.524 3.665 1.833 3.665 1.833s1.44-.393 3.403 1.309c1.963 1.701 1.702 2.094 2.88 2.618 1.178.523 2.094.654 3.01 1.047.916.392 3.534 1.178 3.534 1.178l.342.769 1.321.987s-.223-.578-.092.076c.13.655.392.916.392.916s1.964.393 2.75.786c.784.392 3.533.916 3.533.916l1.963.524s2.356 1.178 2.88 1.178 4.189.654 4.189.654h2.617s.524-.916 1.44 0c.916.916 2.094 1.833 2.094 1.833l1.31.916 1.57 1.047 1.963 2.225 3.273 3.141 2.356 2.618s2.617.393 3.14.655c.524.261 5.498 1.178 5.498 1.178s1.178.785 1.833 1.57c.654.786 1.963 1.44 1.963 1.44l2.749.916 1.047 1.571 2.356-.262 1.309.524 2.094 1.047h2.094l2.618 1.963s3.403.393 4.058.393c.654 0 2.225-.13 2.225-.13l2.487 1.962 2.88-.785 1.046.654s.131 1.44.786 1.44c.654 0 3.665.524 3.665.524s.13-1.178.654-.785c.524.392 1.702 1.57 1.702 1.57l1.963 2.094 2.88 1.048 3.926 1.178s1.571-.131 2.487 0c.917.13 3.142.261 3.142.261l1.44 1.702 1.308 1.963s.786.524 1.702.524c.916 0 1.047-.262 1.178-.786.13-.523-.131-1.308.523-1.44.655-.13 2.095-.392 2.095-.392l1.309-.13.654 1.177s1.309.524 2.094.785c.786.262 3.534-.261 3.534-.261s-.392-.917.655-.917c1.047 0-.524-.654 1.178-.654 1.701 0 1.57-.524 1.832 0s1.178.785 1.178.785 1.31 1.964 2.749 1.964c1.44 0 2.225-.131 3.01-.131.786 0 1.571.392 2.356.523.786.131 1.702.655 2.487.655.786 0 2.095.13 2.095.13s1.832.262 2.617.262c.786 0 2.356.262 3.01.262.655 0 0-.916 2.095.393 2.094 1.309 3.272 2.356 3.45 2.067z" clip-path="url(#c)" fill="#bce8c8" fill-rule="evenodd" stroke="none" transform="translate(903.806 -135.69)"/></g><g display="inline" fill-opacity="1"><text clip-path="none" transform="rotate(-.116 -66750.49 -447691.386)" y="346.618" x="-740.373" style="line-height:100%;-inkscape-font-specification:'DejaVu Sans Condensed, Italic';text-align:center" xml:space="preserve" font-style="italic" font-variant="normal" font-weight="400" font-stretch="normal" font-size="40" font-family="DejaVu Sans Condensed" writing-mode="lr-tb" text-anchor="middle" display="inline" fill="#c4c4c4" stroke="none"><tspan y="346.618" x="-740.373">SUMATRA</tspan></text><path d="M990.845 894.452l-173.269.085" display="inline" fill="#000" fill-rule="evenodd" stroke="#1b4157" stroke-width="3.336" stroke-linecap="butt" stroke-linejoin="miter" stroke-miterlimit="4" stroke-opacity="1"/><text clip-path="none" transform="rotate(-.116 -66750.49 -447691.386)" y="959.299" x="39.574" style="line-height:100%;-inkscape-font-specification:'DejaVu Sans Condensed, Italic';text-align:center" xml:space="preserve" font-style="italic" font-variant="normal" font-weight="400" font-stretch="normal" font-size="24" font-family="DejaVu Sans Condensed" writing-mode="lr-tb" text-anchor="middle" display="inline" fill="#4d4d4d" stroke="none"><tspan y="959.299" x="39.574" font-size="24" fill="#4d4d4d">Nusa</tspan><tspan y="983.299" x="39.574" font-size="24" fill="#4d4d4d">Kambangan</tspan></text></g><g display="inline" fill="none" stroke-linecap="butt" stroke-linejoin="miter" stroke-miterlimit="4" stroke-opacity="1"><path d="M412.46 483.03s-2.884 1.442-4.807-.482c-1.923-1.923-7.212-7.211-10.097-8.653-2.884-1.443-8.653-6.25-8.653-6.25s-3.847-4.327-4.327-6.25c-.481-1.923-3.366-7.212-3.366-7.212s-3.846 6.25-5.769 7.212c-1.923.961-14.904 7.211-14.904 7.211s-2.404 6.73-2.884 9.616c-.481 2.884-5.77 16.826-5.77 16.826s-1.442 8.654-1.923 11.058c-.48 2.404-.961 12.5-.961 14.904s-.481 13.462-.481 15.865c0 2.404-6.25 14.904-6.25 14.904s-3.846 2.885-7.212 6.731c-3.365 3.846-5.288 1.442-7.211 6.25s-4.327 13.942-4.327 16.346 1.923 8.654 6.73 12.5c4.808 3.846 6.732 5.289 9.616 7.212 2.885 1.923 12.02 4.327 14.904 5.769 2.885 1.442 11.058 5.288 13.462 6.25 2.403.961 19.711.961 19.711.961m638.676 12.625c-2.404.962-21.849 2.76-21.849 2.76s-8.654.48-10.577.48h-10.577L974 625.819c-2.404-.962-20.673 0-25 0h-18.75l-12.981-3.846s-15.385.48-17.788 0c-2.404-.481-16.827-4.808-18.75-5.289-1.924-.48-14.424-8.654-14.424-8.654s-4.807-6.73-6.73-9.134-11.539-7.693-11.539-7.693l-8.173-4.327s-1.442-5.769-3.365-7.692c-1.923-1.923-5.77-6.25-5.77-6.25s-1.923-10.577-2.884-13.461c-.962-2.885-2.885-10.577-4.808-13.462s-8.173-10.096-8.173-10.096-8.173-.962-12.98-2.404c-4.808-1.442-14.424-4.808-14.424-4.808l-14.423-1.923-7.692-3.846-30.289-12.02s-13.942.482-15.865.962c-1.923.481-9.135 5.77-13.461 7.212-4.327 1.442-6.731 2.885-14.904 6.25s-14.904 4.327-17.308 5.288c-2.404.962-10.096 4.327-12.02 5.289-1.922.961-15.384-.962-15.384-.962l-16.827-7.692s-16.346-1.923-19.711-2.885c-3.366-.961-13.462-6.25-19.231-8.653-5.77-2.404-8.173-7.693-14.904-8.654-6.73-.962-8.654-3.366-15.865-2.885-7.212.48-16.346-4.327-16.346-4.327l-24.039-5.288s-27.885 6.25-29.808 6.25c-1.923 0-23.557-4.327-25.961-5.289-2.404-.961-20.673-8.173-20.673-8.173s-13.462 0-18.27-1.923c-4.807-1.923-8.653-3.365-10.576-3.365s-4.808 7.211-6.25 10.577c-1.443 3.365-3.366 14.423-3.366 16.827 0 2.403-1.442 6.25-3.365 7.692-1.923 1.442-10.096 7.211-12.02 8.173-1.922.961-4.807 4.327-6.25 8.173-1.442 3.846-2.884 12.5-2.884 14.904s-1.442 16.827-1.442 16.827l-2.885 26.442 12.02 22.115 13.46 9.135 13.943 8.654 9.135 6.73s8.654 1.924 13.942 1.924c5.289 0 23.558-1.443 23.558-1.443s5.288.962 12.98 3.847c7.693 2.884 11.539 5.288 16.347 5.288 4.807 0 9.134 1.923 13.461 0s14.423-6.25 14.423-6.25l13.462-2.885s2.404 3.847 9.615 4.327c7.212.481 16.827-1.923 16.827-1.923s.48 3.366.48 7.693-.96 11.538 0 13.461c.962 1.923 21.155 6.73 21.155 6.73s16.827 1.924 18.75 1.924c1.923 0 11.538-9.615 16.827-10.096 5.288-.481 12.98-4.808 15.865-5.289 2.885-.48 9.135-7.692 13.942-8.653 4.808-.962 17.308-1.443 19.231-2.404 1.923-.962 13.462-10.577 13.462-10.577s3.365-1.443 1.923-4.327c-1.443-2.885-14.423-16.827-16.827-19.231-2.404-2.404-6.73-14.423-6.73-17.788v-22.597s.48-9.134 0-11.057c-.482-1.923-2.886-15.385-2.886-15.385l-2.884-8.654m-110.096-34.134l4.327 12.019s.961 8.173.961 10.577v12.5c0 2.404-.48 11.538-1.923 14.423-1.442 2.885-4.808 11.538-5.288 14.904-.481 3.365-1.923 9.615 0 12.98 1.923 3.366 13.461 7.693 19.23 11.058 5.77 3.366 7.693 9.616 15.385 12.5 7.692 2.885 12.5 6.731 18.27 7.212 5.768.48 13.46-.962 17.788 1.442 4.327 2.404 13.942 1.442 18.75 3.365 4.807 1.924 16.346 9.135 23.077 10.577 6.73 1.443 8.173 1.443 13.942 2.885 5.77 1.442 14.904 1.923 14.904 1.923s13.461 4.327 15.865 4.327 9.135-.962 11.058.962c1.923 1.923 14.423 7.211 14.423 7.211s10.096 3.846 12.5 6.73c2.404 2.885 17.308 9.135 17.308 9.135s6.25-4.807 12.5.962c6.25 5.77 14.903 5.288 16.346 8.173 1.442 2.885 7.211 14.423 7.692 16.346.48 1.923 6.73 12.981 7.692 15.866.962 2.884 16.347 9.134 16.347 9.134s16.346 2.885 18.75 3.366c2.403.48 15.865 4.807 15.865 4.807s3.365.481 5.77.962c2.403.48 12.98 1.442 12.98 1.442s16.827-2.404 17.788-4.327c.962-1.923 11.539-2.884 13.462-3.365 1.923-.481 11.538-2.885 12.98-.481 1.443 2.404 19.712 13.942 19.712 13.942s12.02 6.25 13.462 8.654c1.442 2.404 12.5 6.25 16.346 11.058s6.73 1.442 20.192 7.692 17.308 7.693 17.308 7.693l28.856 6.987M683.133 627.74s8.654-1.443 13.462-1.443h13.942c2.404 0 16.827-.48 18.75-.961 1.923-.48 12.5-3.365 14.423-5.77 1.923-2.403 12.02-8.172 15.866-8.172s16.346-4.808 20.192-4.808 14.904-2.885 16.827-2.885c1.923 0 10.577-3.846 12.98-4.327 2.405-.48 7.212-2.884 11.54-2.884 4.326 0 14.903-3.366 18.268-3.366h11.058m112.657 152.251c0-2.655-1.327-9.292.443-11.947 1.77-2.655 8.85-6.195 8.85-6.195s18.141 2.213 20.354 2.213c2.212 0 7.964 1.327 11.061 5.31 3.098 3.982 12.39 9.734 12.39 9.734 3.192.898 6.306 1.62 9.344 2.182" stroke="red" stroke-width="2.126"/><path d="M1027.075 638.137c-4.688 0-45.925.782-45.925.782h-40.625l-64.844-14.063-47.656-40.625-18.75-35.937-267.187-53.125M535.838 498.294c2.343 8.593-2.344 28.125-2.344 28.125s-3.125 12.5-3.125 18.75-1.563 9.375-1.563 13.28c0 3.907 4.688 18.75 4.688 18.75" stroke="#000" stroke-width="3.543"/><path d="M639.744 517.044s8.594 10.156 9.375 13.28c.781 3.126 3.906 14.063 3.906 20.313 0 6.25.781 14.844.781 20.313 0 5.469-1.562 13.281 0 19.531 1.563 6.25 3.907 15.625 4.688 21.094.781 5.469 27.344 23.437 27.344 23.437l36.718 20.313 28.907 17.187 18.75 8.594s10.156 13.281 17.968 23.438c7.813 10.156 22.657 20.312 22.657 20.312s32.031 4.688 35.937 5.469c3.906.781 28.906.781 32.813.781 3.906 0 25.781-3.125 25.781-3.125s18.56 9.052 21.875 10.156c7.031 2.344 11.719 7.032 25 11.72 13.281 4.687 20.312 10.155 25 12.5 4.687 2.343 22.656 7.812 22.656 7.812l25.593 4.16" stroke="#000" stroke-width="3.543"/><path d="M318.475 436.948c42.579.045 19.837-16.24 52.937 10.253" display="inline" stroke="#1b4157" stroke-width="3.752" stroke-dasharray="7.504 3.752" stroke-dashoffset="0"/></g><g transform="translate(903.806 -135.69)" display="inline"><g transform="matrix(.69834 0 0 .69834 -507.984 296.152)" fill-opacity="1"><circle transform="matrix(.86128 0 0 .86128 -230.327 145.207)" cx="504.975" cy="394.286" r="13.572" fill="#585858" stroke="#585858" stroke-width="3.677" stroke-linecap="butt" stroke-miterlimit="4" stroke-dashoffset="8" stroke-opacity="1"/><path d="M217.452 502l-12.808-9.975L191.9 502.08l5.528-15.263-13.5-9.014 16.224.541 4.4-15.625 4.5 15.598 16.22-.644-13.444 9.099z" fill="#000" stroke="none"/></g><circle transform="matrix(.65127 0 0 .65127 -551.423 507.479)" cx="504.975" cy="394.286" r="13.572" fill="#000" fill-opacity="1" stroke="#585858" stroke-width="3.949" stroke-linecap="butt" stroke-miterlimit="4" stroke-dashoffset="8" stroke-opacity="1"/><circle transform="matrix(.65127 0 0 .65127 -693.828 461.11)" cx="504.975" cy="394.286" r="13.572" fill="#000" fill-opacity="1" stroke="#585858" stroke-width="3.949" stroke-linecap="butt" stroke-miterlimit="4" stroke-dashoffset="8" stroke-opacity="1"/><rect width="14.909" height="14.952" x="-566.978" y="626.583" ry="2.331" fill="#0058ae" fill-opacity="1" stroke="none"/><rect width="14.909" height="14.952" x="-387.328" y="741.96" ry="2.331" fill="#0058ae" fill-opacity="1" stroke="none"/><rect width="14.909" height="14.952" x="-669.359" y="736.107" ry="2.331" fill="#0058ae" fill-opacity="1" stroke="none"/><g clip-path="none" display="inline"><path d="M-406.678 620.203c-1.816 0-2.836.94-2.836 2.857v19.77c0 1.795.917 2.734 2.731 2.734h19.854c1.815 0 2.734-.892 2.734-2.733v-19.77c0-1.872-.92-2.858-2.79-2.858 0 0-19.7-.005-19.693 0z" fill="#273452" fill-opacity="1" stroke="#fff" stroke-width=".1303049" stroke-miterlimit="4" stroke-opacity="1"/><path d="M-397.95 623.749c.004-1.494 2.254-1.494 2.253.042v6.267l8.774 5.274v2.315l-8.732-2.874v4.684l2.02 1.58v1.83l-3.115-.968-3.115.969v-1.832l2-1.579v-4.684l-8.733 2.874v-2.315l8.649-5.274v-6.31z" fill="#fff" stroke="none"/></g><circle transform="matrix(.65127 0 0 .65127 -371.793 473.715)" cx="504.975" cy="394.286" r="13.572" fill="#000" fill-opacity="1" stroke="#585858" stroke-width="3.949" stroke-linecap="butt" stroke-miterlimit="4" stroke-dashoffset="8" stroke-opacity="1"/><rect width="14.909" height="14.952" x="-380.668" y="570.008" ry="2.331" fill="#0058ae" fill-opacity="1" stroke="none"/><circle transform="matrix(.65127 0 0 .65127 -821.515 361.751)" cx="504.975" cy="394.286" r="13.572" fill="#000" fill-opacity="1" stroke="#585858" stroke-width="3.949" stroke-linecap="butt" stroke-miterlimit="4" stroke-dashoffset="8" stroke-opacity="1"/><circle transform="matrix(.65127 0 0 .65127 -855.104 331.894)" cx="504.975" cy="394.286" r="13.572" fill="#000" fill-opacity="1" stroke="#585858" stroke-width="3.949" stroke-linecap="butt" stroke-miterlimit="4" stroke-dashoffset="8" stroke-opacity="1"/><g clip-path="none" display="inline"><path d="M-259.076 749.292c-1.816 0-2.836.939-2.836 2.857v19.77c0 1.794.917 2.734 2.731 2.734h19.854c1.815 0 2.734-.893 2.734-2.734v-19.77c0-1.871-.92-2.857-2.79-2.857 0 0-19.7-.006-19.693 0z" fill="#273452" fill-opacity="1" stroke="#fff" stroke-width=".1303049" stroke-miterlimit="4" stroke-opacity="1"/><path d="M-250.347 752.837c.003-1.493 2.253-1.493 2.252.042v6.268l8.774 5.273v2.316l-8.732-2.874v4.684l2.02 1.579v1.831l-3.115-.968-3.115.968v-1.831l2-1.579v-4.684l-8.733 2.874v-2.316l8.649-5.273v-6.31z" fill="#fff" stroke="none"/></g><rect width="14.909" height="14.952" x="-648.663" y="623.233" ry="2.331" display="inline" fill="#0058ae" fill-opacity="1" stroke="none"/></g><g display="inline" font-variant="normal" font-weight="400" font-stretch="normal" font-family="DejaVu Sans Condensed" writing-mode="lr-tb" text-anchor="middle" fill-opacity="1" stroke="none"><text clip-path="none" y="669.357" x="-417.678" style="line-height:100%;-inkscape-font-specification:'DejaVu Sans Condensed,';text-align:center" xml:space="preserve" font-style="normal" font-size="24" display="inline" fill="#000" transform="translate(903.806 -135.69)"><tspan y="669.357" x="-417.678">J<tspan font-size="22">a</tspan>karta</tspan></text><text clip-path="none" y="718.13" x="-321.492" style="line-height:100%;-inkscape-font-specification:'DejaVu Sans Condensed,';text-align:center" xml:space="preserve" font-style="normal" font-size="24" display="inline" fill="#000" transform="translate(903.806 -135.69)"><tspan y="718.13" x="-321.492">Bogor</tspan></text><text clip-path="none" y="799.957" x="-265.143" style="line-height:100%;-inkscape-font-specification:'DejaVu Sans Condensed,';text-align:center" xml:space="preserve" font-style="normal" font-size="24" display="inline" fill="#000" transform="translate(903.806 -135.69)"><tspan y="799.957" x="-265.143">Bandung</tspan></text><text clip-path="none" transform="rotate(-.116 -66750.49 -447691.386)" y="778.301" x="-695.751" style="line-height:100%;-inkscape-font-specification:'DejaVu Sans Condensed, Italic';text-align:center" xml:space="preserve" font-style="italic" font-size="24" display="inline" fill="#383838"><tspan y="778.301" x="-691.532">Ujung </tspan><tspan y="802.301" x="-695.751">Kulon NP</tspan></text><text clip-path="none" transform="rotate(-.116 -66750.49 -447691.386)" y="655.006" x="-605.874" style="line-height:100%;-inkscape-font-specification:'DejaVu Sans Condensed, Italic';text-align:center" xml:space="preserve" font-style="italic" font-size="24" display="inline" fill="#383838"><tspan y="655.006" x="-605.874">Anyer</tspan></text><text clip-path="none" transform="rotate(-.116 -66750.49 -447691.386)" y="736.908" x="-438.01" style="line-height:100%;-inkscape-font-specification:'DejaVu Sans Condensed, Italic';text-align:center" xml:space="preserve" font-style="italic" font-size="24" display="inline" fill="#383838"><tspan y="736.908" x="-438.01">Mt Halimun</tspan><tspan y="760.908" x="-438.01">NP</tspan></text><text clip-path="none" y="721.983" x="9.606" style="line-height:100%;-inkscape-font-specification:'DejaVu Sans Condensed,';text-align:center" xml:space="preserve" font-style="normal" font-size="24" display="inline" fill="#000" transform="translate(903.806 -135.69)"><tspan y="721.983" x="9.606">Cirebon</tspan></text><text clip-path="none" transform="rotate(-.116 -66750.49 -447691.386)" y="538.154" x="-385.797" style="line-height:100%;-inkscape-font-specification:'DejaVu Sans Condensed, Italic';text-align:center" xml:space="preserve" font-style="italic" font-size="24" display="inline" fill="#383838"><tspan y="538.154" x="-381.579">Pulau </tspan><tspan y="562.154" x="-385.797">Seribu NP</tspan></text><text clip-path="none" y="651.377" x="-500.448" style="line-height:100%;-inkscape-font-specification:'DejaVu Sans Condensed,';text-align:center" xml:space="preserve" font-style="normal" font-size="24" display="inline" fill="#000" transform="translate(903.806 -135.69)"><tspan y="651.377" x="-500.448">Serang</tspan></text><text clip-path="none" transform="rotate(-.116 -66750.49 -447691.386)" y="686.78" x="-710.476" style="line-height:100%;-inkscape-font-specification:'DejaVu Sans Condensed, Italic';text-align:center" xml:space="preserve" font-style="italic" font-size="24" display="inline" fill="#383838"><tspan y="686.78" x="-710.476">Panaitan</tspan></text><text clip-path="none" transform="rotate(-.116 -66750.49 -447691.386)" y="618.709" x="-638.988" style="line-height:100%;-inkscape-font-specification:'DejaVu Sans Condensed, Italic';text-align:center" xml:space="preserve" font-style="italic" font-size="24" display="inline" fill="#383838"><tspan y="618.709" x="-638.988">Krakatau</tspan></text><text clip-path="none" y="565.233" x="-503.562" style="line-height:100%;-inkscape-font-specification:'DejaVu Sans Condensed,';text-align:center" xml:space="preserve" font-style="normal" font-size="24" display="inline" fill="#000" transform="translate(903.806 -135.69)"><tspan y="565.233" x="-503.562">Merak</tspan></text><text y="392.495" x="-62.5" style="line-height:100%;-inkscape-font-specification:'DejaVu Sans Condensed, Italic';text-align:center" xml:space="preserve" font-style="italic" font-size="40" display="inline" fill="#1b4157" transform="translate(903.806 -135.69)"><tspan y="392.495" x="-62.5">Java Sea</tspan></text><text y="952.692" x="-626.444" style="line-height:100%;-inkscape-font-specification:'DejaVu Sans Condensed, Italic';text-align:center" xml:space="preserve" font-style="italic" font-size="40" display="inline" fill="#1b4157" transform="translate(903.806 -135.69)"><tspan y="952.692" x="-626.444">Sunda Strait</tspan></text></g></svg>